<?xml version="1.0" encoding="UTF-8" standalone="no"?>
<!DOCTYPE svg PUBLIC "-//W3C//DTD SVG 1.1//EN" "http://www.w3.org/Graphics/SVG/1.1/DTD/svg11.dtd">
<svg version="1.1" xmlns="http://www.w3.org/2000/svg" xmlns:xlink="http://www.w3.org/1999/xlink" preserveAspectRatio="xMidYMid meet" viewBox="0 0 640 640" width="23" height="23"><defs><path d="M307.5 490.15C315.85 490.15 322.62 483.38 322.62 475.03C322.62 407.11 322.62 218.48 322.62 150.56C322.62 142.21 315.85 135.44 307.5 135.44C304.48 135.44 310.53 135.44 307.5 135.44C299.15 135.44 292.38 142.21 292.38 150.56C292.38 218.48 292.38 407.11 292.38 475.03C292.38 483.38 299.15 490.15 307.5 490.15C310.53 490.15 304.48 490.15 307.5 490.15Z" id="b2x53jzs8m"></path><path d="M434.36 368.43C441.78 360.66 441.78 348.43 434.36 340.65C428.46 334.46 423.99 329.78 418.09 323.59C410.87 316.02 398.8 316.02 391.59 323.59C364.19 352.31 295.25 424.6 267.85 453.33C260.43 461.11 260.43 473.34 267.85 481.12C273.75 487.31 278.22 491.99 284.12 498.18C291.34 505.74 303.41 505.74 310.62 498.18C338.02 469.45 406.96 397.16 434.36 368.43Z" id="i1cgT1e9uk"></path><path d="M277.48 490.15C269.13 490.15 262.36 483.38 262.36 475.03C262.36 407.11 262.36 218.48 262.36 150.56C262.36 142.21 269.13 135.44 277.48 135.44C280.51 135.44 274.46 135.44 277.48 135.44C285.84 135.44 292.61 142.21 292.61 150.56C292.61 218.48 292.61 407.11 292.61 475.03C292.61 483.38 285.84 490.15 277.48 490.15C274.46 490.15 280.51 490.15 277.48 490.15Z" id="az8DrZ823"></path><path d="M150.62 368.5C143.21 360.72 143.21 348.49 150.62 340.71C156.53 334.52 160.99 329.84 166.9 323.65C174.11 316.08 186.18 316.08 193.4 323.65C220.79 352.38 289.74 424.67 317.14 453.39C324.55 461.17 324.55 473.4 317.14 481.18C311.23 487.37 306.77 492.05 300.86 498.24C293.65 505.8 281.58 505.8 274.36 498.24C246.97 469.51 178.02 397.22 150.62 368.5Z" id="ad2VpiR6c"></path><path d="M301.23 452.4C313.05 452.4 322.62 442.82 322.62 431.01C322.62 371.14 322.62 212.93 322.62 153.06C322.62 141.24 313.05 131.67 301.23 131.67C293.46 131.67 291.53 131.67 283.75 131.67C271.94 131.67 262.36 141.24 262.36 153.06C262.36 212.93 262.36 371.14 262.36 431.01C262.36 442.82 271.94 452.4 283.75 452.4C291.53 452.4 293.46 452.4 301.23 452.4Z" id="bUdawvuxc"></path><path d="M320.81 474.8C320.81 457.3 308.17 443.09 292.61 443.09C277.04 443.09 264.4 457.3 264.4 474.8C264.4 492.3 277.04 506.51 292.61 506.51C308.17 506.51 320.81 492.3 320.81 474.8Z" id="coYDHHkSL"></path></defs><g><g><g><use xlink:href="#b2x53jzs8m" opacity="1" fill="#ffffff" fill-opacity="1"></use></g><g><use xlink:href="#i1cgT1e9uk" opacity="1" fill="#ffffff" fill-opacity="1"></use></g><g><use xlink:href="#az8DrZ823" opacity="1" fill="#ffffff" fill-opacity="1"></use></g><g><use xlink:href="#ad2VpiR6c" opacity="1" fill="#ffffff" fill-opacity="1"></use></g><g><use xlink:href="#bUdawvuxc" opacity="1" fill="#ffffff" fill-opacity="1"></use></g><g><use xlink:href="#coYDHHkSL" opacity="1" fill="#ffffff" fill-opacity="1"></use></g></g></g></svg>