<?xml version="1.0" encoding="UTF-8" standalone="no"?>
<!DOCTYPE svg PUBLIC "-//W3C//DTD SVG 1.1//EN" "http://www.w3.org/Graphics/SVG/1.1/DTD/svg11.dtd">
<svg version="1.1" xmlns="http://www.w3.org/2000/svg" xmlns:xlink="http://www.w3.org/1999/xlink" preserveAspectRatio="xMidYMid meet" viewBox="0 0 640 640" width="23" height="23"><defs><path d="M346.99 28.07C362.01 28.07 374.19 40.24 374.19 55.26C374.19 171.54 374.19 493.17 374.19 609.45C374.19 624.47 362.01 636.64 346.99 636.64C341.55 636.64 352.43 636.64 346.99 636.64C331.97 636.64 319.8 624.47 319.8 609.45C319.8 493.17 319.8 171.54 319.8 55.26C319.8 40.24 331.97 28.07 346.99 28.07C352.43 28.07 341.55 28.07 346.99 28.07Z" id="bqj0zEwI6"></path><path d="M575.13 236.9C588.29 250.07 588.29 271.41 575.13 284.57C564.51 295.19 556.48 303.22 545.86 313.85C532.71 327.01 511.37 327.01 498.21 313.85C448.94 264.56 324.95 140.53 275.68 91.24C262.52 78.08 262.52 56.74 275.68 43.57C286.3 32.95 294.33 24.92 304.95 14.3C318.11 1.14 339.44 1.14 352.6 14.3C401.87 63.59 525.86 187.61 575.13 236.9Z" id="afsGRZRgN"></path><path d="M293.01 28.07C277.99 28.07 265.81 40.24 265.81 55.26C265.81 171.54 265.81 493.17 265.81 609.45C265.81 624.47 277.99 636.64 293.01 636.64C298.45 636.64 287.57 636.64 293.01 636.64C308.03 636.64 320.2 624.47 320.2 609.45C320.2 493.17 320.2 171.54 320.2 55.26C320.2 40.24 308.03 28.07 293.01 28.07C287.57 28.07 298.45 28.07 293.01 28.07Z" id="d2TOJjAhR0"></path><path d="M64.87 236.79C51.71 249.96 51.71 271.3 64.87 284.46C75.49 295.09 83.52 303.12 94.14 313.74C107.29 326.9 128.63 326.9 141.79 313.74C191.06 264.45 315.05 140.42 364.32 91.14C377.48 77.97 377.48 56.63 364.32 43.47C353.7 32.84 345.67 24.81 335.05 14.19C321.89 1.03 300.56 1.03 287.4 14.19C238.13 63.48 114.14 187.51 64.87 236.79Z" id="b8GgYiDXmQ"></path><path d="M337.48 92.84C357.75 92.84 374.19 109.27 374.19 129.54C374.19 232.26 374.19 503.7 374.19 606.42C374.19 626.69 357.75 643.12 337.48 643.12C323.15 643.12 316.85 643.12 302.52 643.12C282.25 643.12 265.81 626.69 265.81 606.42C265.81 503.7 265.81 232.26 265.81 129.54C265.81 109.27 282.25 92.84 302.52 92.84C316.85 92.84 323.15 92.84 337.48 92.84Z" id="a51qtU1wJ"></path><path d="M370.92 54.41C370.92 84.44 348.2 108.82 320.2 108.82C292.21 108.82 269.48 84.44 269.48 54.41C269.48 24.38 292.21 0 320.2 0C348.2 0 370.92 24.38 370.92 54.41Z" id="d2Gx3ciDb"></path></defs><g><g><g><use xlink:href="#bqj0zEwI6" opacity="1" fill="#161f33" fill-opacity="1"></use></g><g><use xlink:href="#afsGRZRgN" opacity="1" fill="#161f33" fill-opacity="1"></use></g><g><use xlink:href="#d2TOJjAhR0" opacity="1" fill="#161f33" fill-opacity="1"></use></g><g><use xlink:href="#b8GgYiDXmQ" opacity="1" fill="#161f33" fill-opacity="1"></use></g><g><use xlink:href="#a51qtU1wJ" opacity="1" fill="#161f33" fill-opacity="1"></use></g><g><use xlink:href="#d2Gx3ciDb" opacity="1" fill="#161f33" fill-opacity="1"></use></g></g></g></svg>