<?xml version="1.0" encoding="UTF-8" standalone="no"?>
<!DOCTYPE svg PUBLIC "-//W3C//DTD SVG 1.1//EN" "http://www.w3.org/Graphics/SVG/1.1/DTD/svg11.dtd">
<svg version="1.1" xmlns="http://www.w3.org/2000/svg" xmlns:xlink="http://www.w3.org/1999/xlink" preserveAspectRatio="xMidYMid meet" viewBox="0 0 640 640" width="23" height="23"><defs><path d="M358.01 27.93C372.96 27.93 385.09 40.05 385.09 55C385.09 170.71 385.09 490.77 385.09 606.48C385.09 621.43 372.96 633.55 358.01 633.55C350.27 633.55 354.12 633.55 346.37 633.55C331.42 633.55 319.3 621.43 319.3 606.48C319.3 490.77 319.3 170.71 319.3 55C319.3 40.05 331.42 27.93 346.37 27.93C354.12 27.93 350.27 27.93 358.01 27.93Z" id="e5XQxhwSE5"></path><path d="M628.12 235.75C643.05 248.04 643.05 270.9 628.12 283.19C615.28 293.76 605.57 301.75 592.73 312.32C575.99 326.1 551.83 326.1 535.09 312.32C475.5 263.28 325.54 139.85 265.95 90.8C251.01 78.51 251.01 55.65 265.95 43.36C278.79 32.79 288.5 24.8 301.34 14.23C318.08 0.45 342.24 0.45 358.98 14.23C418.57 63.28 568.53 186.7 628.12 235.75Z" id="a2RXoDLs2Q"></path><path d="M281.08 27.93C266.13 27.93 254.01 40.05 254.01 55C254.01 170.71 254.01 490.77 254.01 606.48C254.01 621.43 266.13 633.55 281.08 633.55C288.82 633.55 284.98 633.55 292.72 633.55C307.67 633.55 319.79 621.43 319.79 606.48C319.79 490.77 319.79 170.71 319.79 55C319.79 40.05 307.67 27.93 292.72 27.93C284.98 27.93 288.82 27.93 281.08 27.93Z" id="awa51ibi9"></path><path d="M10.97 235.64C-3.96 247.93 -3.96 270.79 10.97 283.08C23.81 293.65 33.52 301.65 46.37 312.22C63.11 326 87.26 326 104 312.22C163.6 263.17 313.56 139.74 373.15 90.69C388.08 78.41 388.08 55.54 373.15 43.25C360.31 32.68 350.6 24.69 337.75 14.12C321.01 0.34 296.86 0.34 280.12 14.12C220.52 63.17 70.56 186.6 10.97 235.64Z" id="b2vJh56W3G"></path><path d="M348.56 92.39C368.73 92.39 385.09 108.74 385.09 128.92C385.09 231.13 385.09 501.26 385.09 603.47C385.09 623.65 368.73 640 348.56 640C329.65 640 309.44 640 290.53 640C270.36 640 254.01 623.65 254.01 603.47C254.01 501.26 254.01 231.13 254.01 128.92C254.01 108.74 270.36 92.39 290.53 92.39C309.44 92.39 329.65 92.39 348.56 92.39Z" id="cQGOu9zyr"></path><path d="M381.14 54.14C381.14 84.03 353.65 108.29 319.79 108.29C285.93 108.29 258.45 84.03 258.45 54.14C258.45 24.26 285.93 0 319.79 0C353.65 0 381.14 24.26 381.14 54.14Z" id="k3zfxIbPq"></path></defs><g><g><g><use xlink:href="#e5XQxhwSE5" opacity="1" fill="#161f33" fill-opacity="1"></use></g><g><use xlink:href="#a2RXoDLs2Q" opacity="1" fill="#161f33" fill-opacity="1"></use></g><g><use xlink:href="#awa51ibi9" opacity="1" fill="#161f33" fill-opacity="1"></use></g><g><use xlink:href="#b2vJh56W3G" opacity="1" fill="#161f33" fill-opacity="1"></use></g><g><use xlink:href="#cQGOu9zyr" opacity="1" fill="#161f33" fill-opacity="1"></use></g><g><use xlink:href="#k3zfxIbPq" opacity="1" fill="#161f33" fill-opacity="1"></use></g></g></g></svg>