<?xml version="1.0" encoding="UTF-8" standalone="no"?>
<!DOCTYPE svg PUBLIC "-//W3C//DTD SVG 1.1//EN" "http://www.w3.org/Graphics/SVG/1.1/DTD/svg11.dtd">
<svg version="1.1" xmlns="http://www.w3.org/2000/svg" xmlns:xlink="http://www.w3.org/1999/xlink" preserveAspectRatio="xMidYMid meet" viewBox="0 0 640 640" width="20" height="20"><defs><path d="M345.74 575.71C358.74 575.71 369.28 565.18 369.28 552.18C369.28 451.57 369.28 173.29 369.28 72.69C369.28 59.69 358.74 49.15 345.74 49.15C340.56 49.15 348.54 49.15 343.35 49.15C330.35 49.15 319.82 59.69 319.82 72.69C319.82 173.29 319.82 451.57 319.82 552.18C319.82 565.18 330.35 575.71 343.35 575.71C348.54 575.71 340.56 575.71 345.74 575.71Z" id="cUhLvRV9"></path><path d="M552.02 395.02C563.81 383.8 563.81 365 552.02 353.78C542.37 344.59 535.07 337.64 525.41 328.45C513.27 316.9 494.21 316.9 482.07 328.45C437.26 371.09 324.5 478.41 279.7 521.05C267.91 532.27 267.91 551.08 279.7 562.3C289.35 571.49 296.65 578.44 306.31 587.63C318.45 599.18 337.51 599.18 349.65 587.63C394.46 544.98 507.21 437.67 552.02 395.02Z" id="hgrYoGajR"></path><path d="M294.26 575.71C281.26 575.71 270.72 565.18 270.72 552.18C270.72 451.57 270.72 173.29 270.72 72.69C270.72 59.69 281.26 49.15 294.26 49.15C299.44 49.15 291.46 49.15 296.65 49.15C309.65 49.15 320.18 59.69 320.18 72.69C320.18 173.29 320.18 451.57 320.18 552.18C320.18 565.18 309.65 575.71 296.65 575.71C291.46 575.71 299.44 575.71 294.26 575.71Z" id="d3lUdi1Lcg"></path><path d="M87.98 395.12C76.19 383.9 76.19 365.09 87.98 353.87C97.63 344.68 104.93 337.73 114.59 328.54C126.73 316.99 145.79 316.99 157.93 328.54C202.74 371.19 315.5 478.5 360.3 521.15C372.09 532.37 372.09 551.17 360.3 562.39C350.65 571.58 343.35 578.53 333.69 587.72C321.55 599.27 302.49 599.27 290.35 587.72C245.54 545.08 132.79 437.76 87.98 395.12Z" id="e1nojFIM1m"></path><path d="M337.52 519.67C355.06 519.67 369.28 505.45 369.28 487.91C369.28 399.04 369.28 164.18 369.28 75.3C369.28 57.77 355.06 43.55 337.52 43.55C324.16 43.55 315.84 43.55 302.48 43.55C284.94 43.55 270.72 57.77 270.72 75.3C270.72 164.18 270.72 399.04 270.72 487.91C270.72 505.45 284.94 519.67 302.48 519.67C315.84 519.67 324.16 519.67 337.52 519.67Z" id="d432QDMpTw"></path><path d="M366.31 552.92C366.31 526.94 345.64 505.85 320.18 505.85C294.73 505.85 274.06 526.94 274.06 552.92C274.06 578.91 294.73 600 320.18 600C345.64 600 366.31 578.91 366.31 552.92Z" id="a2uS82eimE"></path></defs><g><g><g><use xlink:href="#cUhLvRV9" opacity="1" fill="#ffffff" fill-opacity="1"></use></g><g><use xlink:href="#hgrYoGajR" opacity="1" fill="#ffffff" fill-opacity="1"></use></g><g><use xlink:href="#d3lUdi1Lcg" opacity="1" fill="#ffffff" fill-opacity="1"></use></g><g><use xlink:href="#e1nojFIM1m" opacity="1" fill="#ffffff" fill-opacity="1"></use></g><g><use xlink:href="#d432QDMpTw" opacity="1" fill="#ffffff" fill-opacity="1"></use></g><g><use xlink:href="#a2uS82eimE" opacity="1" fill="#ffffff" fill-opacity="1"></use></g></g></g></svg>