<?xml version="1.0" encoding="UTF-8" standalone="no"?>
<!DOCTYPE svg PUBLIC "-//W3C//DTD SVG 1.1//EN" "http://www.w3.org/Graphics/SVG/1.1/DTD/svg11.dtd">
<svg version="1.1" xmlns="http://www.w3.org/2000/svg" xmlns:xlink="http://www.w3.org/1999/xlink" preserveAspectRatio="xMidYMid meet" viewBox="0 0 640 640" width="640" height="640"><defs><path d="M291.37 5.04L292.43 5.15L293.48 5.3L294.52 5.49L295.54 5.72L296.55 5.99L297.54 6.3L298.52 6.64L299.47 7.02L300.41 7.44L301.33 7.89L302.22 8.38L303.1 8.9L303.95 9.45L304.78 10.04L305.59 10.65L306.37 11.3L307.12 11.97L307.85 12.67L308.56 13.4L309.23 14.16L309.87 14.94L310.49 15.75L311.07 16.58L311.63 17.43L312.15 18.31L312.63 19.2L313.09 20.12L313.5 21.06L313.89 22.01L314.23 22.99L314.54 23.98L314.81 24.98L315.04 26.01L315.23 27.04L315.38 28.09L315.49 29.16L315.55 30.23L315.58 31.32L315.58 490.7L381.6 558.34L382.1 558.88L382.58 559.44L383.04 560.01L383.46 560.59L383.86 561.18L384.24 561.79L384.59 562.4L384.91 563.03L385.21 563.67L385.48 564.32L385.73 564.97L385.95 565.63L386.15 566.3L386.31 566.97L386.46 567.65L386.57 568.33L386.66 569.01L386.73 569.7L386.77 570.39L386.78 571.08L386.77 571.77L386.73 572.46L386.66 573.14L386.57 573.83L386.46 574.51L386.31 575.19L386.15 575.86L385.95 576.53L385.73 577.19L385.48 577.84L385.21 578.49L384.91 579.12L384.59 579.75L384.24 580.37L383.86 580.97L383.46 581.57L383.04 582.15L382.58 582.72L382.1 583.27L381.6 583.81L331.87 634.76L331.35 635.27L330.81 635.76L330.26 636.22L329.7 636.65L329.12 637.05L328.53 637.43L327.93 637.79L327.32 638.11L326.7 638.42L326.07 638.69L325.43 638.94L324.78 639.16L324.13 639.36L323.47 639.53L322.8 639.67L322.14 639.79L321.47 639.88L320.79 639.95L320.12 639.99L319.44 640L318.76 639.99L318.09 639.95L317.41 639.88L316.74 639.79L316.07 639.67L315.41 639.53L314.75 639.36L314.1 639.16L313.45 638.94L312.81 638.69L312.18 638.42L311.56 638.11L310.95 637.79L310.35 637.43L309.76 637.05L309.18 636.65L308.62 636.22L308.07 635.76L307.53 635.27L307.01 634.76L56.3 377.88L55.79 377.34L55.31 376.79L54.86 376.22L54.43 375.64L54.03 375.05L53.65 374.44L53.31 373.82L52.98 373.2L52.68 372.56L52.41 371.91L52.16 371.26L51.94 370.6L51.75 369.93L51.58 369.26L51.44 368.58L51.32 367.9L51.23 367.21L51.17 366.53L51.13 365.84L51.11 365.15L51.13 364.46L51.17 363.77L51.23 363.09L51.32 362.4L51.44 361.72L51.58 361.04L51.75 360.37L51.94 359.7L52.16 359.04L52.41 358.39L52.68 357.74L52.98 357.1L53.31 356.48L53.65 355.86L54.03 355.25L54.43 354.66L54.86 354.08L55.31 353.51L55.79 352.96L56.3 352.42L106.03 301.46L106.55 300.95L107.08 300.47L107.63 300.01L108.2 299.58L108.77 299.17L109.36 298.79L109.96 298.44L110.58 298.11L111.2 297.81L111.83 297.54L112.47 297.29L113.11 297.07L113.77 296.87L114.43 296.7L115.09 296.56L115.76 296.44L116.43 296.35L117.1 296.28L117.78 296.24L118.46 296.23L119.13 296.24L119.81 296.28L120.48 296.35L121.15 296.44L121.82 296.56L122.49 296.7L123.14 296.87L123.8 297.07L124.44 297.29L125.08 297.54L125.71 297.81L126.34 298.11L126.95 298.44L127.55 298.79L128.14 299.17L128.72 299.58L129.28 300.01L129.83 300.47L130.36 300.95L130.88 301.46L262.84 436.66L262.84 31.32L262.86 30.23L262.92 29.16L263.03 28.09L263.18 27.04L263.37 26.01L263.6 24.98L263.87 23.98L264.18 22.99L264.53 22.01L264.91 21.06L265.33 20.12L265.78 19.2L266.27 18.31L266.79 17.43L267.34 16.58L267.93 15.75L268.54 14.94L269.18 14.16L269.86 13.4L270.56 12.67L271.29 11.97L272.05 11.3L272.83 10.65L273.63 10.04L274.46 9.45L275.32 8.9L276.19 8.38L277.09 7.89L278.01 7.44L278.94 7.02L279.9 6.64L280.87 6.3L281.86 5.99L282.87 5.72L283.89 5.49L284.93 5.3L285.98 5.15L287.04 5.04L288.12 4.97L289.21 4.95L290.29 4.97L291.37 5.04Z" id="afXuDFrP"></path><path d="M353.2 5.04L354.26 5.15L355.31 5.3L356.35 5.49L357.37 5.72L358.38 5.99L359.37 6.3L360.34 6.64L361.3 7.02L362.24 7.44L363.15 7.89L364.05 8.38L364.93 8.9L365.78 9.45L366.61 10.04L367.41 10.65L368.2 11.3L368.95 11.97L369.68 12.67L370.38 13.4L371.06 14.16L371.7 14.94L372.32 15.75L372.9 16.58L373.45 17.43L373.97 18.31L374.46 19.2L374.91 20.12L375.33 21.06L375.71 22.01L376.06 22.99L376.37 23.98L376.64 24.98L376.87 26.01L377.06 27.04L377.21 28.09L377.32 29.16L377.38 30.23L377.4 31.32L377.4 436.66L509.36 301.46L509.88 300.95L510.41 300.47L510.96 300.01L511.53 299.58L512.1 299.17L512.69 298.79L513.29 298.44L513.91 298.11L514.53 297.81L515.16 297.54L515.8 297.29L516.44 297.07L517.1 296.87L517.76 296.7L518.42 296.56L519.09 296.44L519.76 296.35L520.43 296.28L521.11 296.24L521.79 296.23L522.46 296.24L523.14 296.28L523.81 296.35L524.48 296.44L525.15 296.56L525.82 296.7L526.47 296.87L527.13 297.07L527.77 297.29L528.41 297.54L529.04 297.81L529.67 298.11L530.28 298.44L530.88 298.79L531.47 299.17L532.05 299.58L532.61 300.01L533.16 300.47L533.69 300.95L534.21 301.46L583.94 352.42L584.45 352.96L584.93 353.51L585.38 354.08L585.81 354.66L586.21 355.25L586.59 355.86L586.94 356.48L587.26 357.1L587.56 357.74L587.83 358.39L588.08 359.04L588.3 359.7L588.49 360.37L588.66 361.04L588.8 361.72L588.92 362.4L589.01 363.09L589.08 363.77L589.11 364.46L589.13 365.15L589.11 365.84L589.08 366.53L589.01 367.21L588.92 367.9L588.8 368.58L588.66 369.26L588.49 369.93L588.3 370.6L588.08 371.26L587.83 371.91L587.56 372.56L587.26 373.2L586.94 373.82L586.59 374.44L586.21 375.05L585.81 375.64L585.38 376.22L584.93 376.79L584.45 377.34L583.94 377.88L333.23 634.76L332.71 635.27L332.18 635.76L331.63 636.22L331.06 636.65L330.48 637.05L329.9 637.43L329.29 637.79L328.68 638.11L328.06 638.42L327.43 638.69L326.79 638.94L326.14 639.16L325.49 639.36L324.83 639.53L324.17 639.67L323.5 639.79L322.83 639.88L322.15 639.95L321.48 639.99L320.8 640L320.13 639.99L319.45 639.95L318.78 639.88L318.1 639.79L317.44 639.67L316.77 639.53L316.11 639.36L315.46 639.16L314.81 638.94L314.17 638.69L313.54 638.42L312.92 638.11L312.31 637.79L311.71 637.43L311.12 637.05L310.54 636.65L309.98 636.22L309.43 635.76L308.89 635.27L308.37 634.76L258.65 583.81L258.14 583.27L257.66 582.72L257.21 582.15L256.78 581.57L256.38 580.97L256 580.37L255.65 579.75L255.33 579.12L255.03 578.49L254.76 577.84L254.51 577.19L254.29 576.53L254.1 575.86L253.93 575.19L253.79 574.51L253.67 573.83L253.58 573.14L253.51 572.46L253.47 571.77L253.46 571.08L253.47 570.39L253.51 569.7L253.58 569.01L253.67 568.33L253.79 567.65L253.93 566.97L254.1 566.3L254.29 565.63L254.51 564.97L254.76 564.32L255.03 563.67L255.33 563.03L255.65 562.4L256 561.79L256.38 561.18L256.78 560.59L257.21 560.01L257.66 559.44L258.14 558.88L258.65 558.34L324.67 490.7L324.67 31.32L324.69 30.23L324.75 29.16L324.86 28.09L325.01 27.04L325.2 26.01L325.43 24.98L325.7 23.98L326.01 22.99L326.36 22.01L326.74 21.06L327.16 20.12L327.61 19.2L328.1 18.31L328.62 17.43L329.17 16.58L329.75 15.75L330.37 14.94L331.01 14.16L331.69 13.4L332.39 12.67L333.12 11.97L333.87 11.3L334.66 10.65L335.46 10.04L336.29 9.45L337.14 8.9L338.02 8.38L338.92 7.89L339.83 7.44L340.77 7.02L341.73 6.64L342.7 6.3L343.69 5.99L344.7 5.72L345.72 5.49L346.76 5.3L347.81 5.15L348.87 5.04L349.95 4.97L351.03 4.95L352.12 4.97L353.2 5.04Z" id="a18mZNxtk2"></path><path d="M348.34 532.98C365.59 532.98 379.57 519 379.57 501.75C379.57 401.41 379.57 131.62 379.57 31.28C379.57 14.03 365.59 0.05 348.34 0.05C331.62 0.05 312.71 0.05 295.99 0.05C278.75 0.05 264.76 14.03 264.76 31.28C264.76 131.62 264.76 401.41 264.76 501.75C264.76 519 278.75 532.98 295.99 532.98C312.71 532.98 331.62 532.98 348.34 532.98Z" id="c4eTe1DcDN"></path></defs><g><g><g><use xlink:href="#afXuDFrP" opacity="1" fill="#ffffff" fill-opacity="1"></use></g><g><use xlink:href="#a18mZNxtk2" opacity="1" fill="#ffffff" fill-opacity="1"></use></g><g><use xlink:href="#c4eTe1DcDN" opacity="1" fill="#ffffff" fill-opacity="1"></use></g></g></g></svg>