<?xml version="1.0" encoding="UTF-8" standalone="no"?>
<!DOCTYPE svg PUBLIC "-//W3C//DTD SVG 1.1//EN" "http://www.w3.org/Graphics/SVG/1.1/DTD/svg11.dtd">
<svg version="1.1" xmlns="http://www.w3.org/2000/svg" xmlns:xlink="http://www.w3.org/1999/xlink" preserveAspectRatio="xMidYMid meet" viewBox="0 0 640 640" width="20" height="20"><defs><path d="M345.74 67.83C358.74 67.83 369.28 78.37 369.28 91.37C369.28 191.98 369.28 470.25 369.28 570.86C369.28 583.86 358.74 594.4 345.74 594.4C340.56 594.4 348.54 594.4 343.35 594.4C330.35 594.4 319.82 583.86 319.82 570.86C319.82 470.25 319.82 191.98 319.82 91.37C319.82 78.37 330.35 67.83 343.35 67.83C348.54 67.83 340.56 67.83 345.74 67.83Z" id="a3ekt0O5KS"></path><path d="M552.02 248.52C563.81 259.74 563.81 278.55 552.02 289.77C542.37 298.96 535.07 305.91 525.41 315.1C513.27 326.65 494.21 326.65 482.07 315.1C437.26 272.45 324.5 165.14 279.7 122.49C267.91 111.27 267.91 92.47 279.7 81.25C289.35 72.06 296.65 65.11 306.31 55.92C318.45 44.37 337.51 44.37 349.65 55.92C394.46 98.56 507.21 205.88 552.02 248.52Z" id="b1Zp8eRA7a"></path><path d="M294.26 67.83C281.26 67.83 270.72 78.37 270.72 91.37C270.72 191.98 270.72 470.25 270.72 570.86C270.72 583.86 281.26 594.4 294.26 594.4C299.44 594.4 291.46 594.4 296.65 594.4C309.65 594.4 320.18 583.86 320.18 570.86C320.18 470.25 320.18 191.98 320.18 91.37C320.18 78.37 309.65 67.83 296.65 67.83C291.46 67.83 299.44 67.83 294.26 67.83Z" id="e5lcocDs4Q"></path><path d="M87.98 248.43C76.19 259.65 76.19 278.46 87.98 289.68C97.63 298.87 104.93 305.82 114.59 315.01C126.73 326.56 145.79 326.56 157.93 315.01C202.74 272.36 315.5 165.05 360.3 122.4C372.09 111.18 372.09 92.38 360.3 81.15C350.65 71.96 343.35 65.02 333.69 55.83C321.55 44.27 302.49 44.27 290.35 55.83C245.54 98.47 132.79 205.78 87.98 248.43Z" id="eTyjt5wE"></path><path d="M337.52 123.88C355.06 123.88 369.28 138.09 369.28 155.63C369.28 244.51 369.28 479.37 369.28 568.24C369.28 585.78 355.06 600 337.52 600C324.16 600 315.84 600 302.48 600C284.94 600 270.72 585.78 270.72 568.24C270.72 479.37 270.72 244.51 270.72 155.63C270.72 138.09 284.94 123.88 302.48 123.88C315.84 123.88 324.16 123.88 337.52 123.88Z" id="b6T5DNicf"></path><path d="M366.31 90.62C366.31 116.61 345.64 137.7 320.18 137.7C294.73 137.7 274.06 116.61 274.06 90.62C274.06 64.64 294.73 43.55 320.18 43.55C345.64 43.55 366.31 64.64 366.31 90.62Z" id="d9EEjeMLl"></path></defs><g><g><g><use xlink:href="#a3ekt0O5KS" opacity="1" fill="#161f33" fill-opacity="1"></use></g><g><use xlink:href="#b1Zp8eRA7a" opacity="1" fill="#161f33" fill-opacity="1"></use></g><g><use xlink:href="#e5lcocDs4Q" opacity="1" fill="#161f33" fill-opacity="1"></use></g><g><use xlink:href="#eTyjt5wE" opacity="1" fill="#161f33" fill-opacity="1"></use></g><g><use xlink:href="#b6T5DNicf" opacity="1" fill="#161f33" fill-opacity="1"></use></g><g><use xlink:href="#d9EEjeMLl" opacity="1" fill="#161f33" fill-opacity="1"></use></g></g></g></svg>