<?xml version="1.0" encoding="UTF-8" standalone="no"?>
<!DOCTYPE svg PUBLIC "-//W3C//DTD SVG 1.1//EN" "http://www.w3.org/Graphics/SVG/1.1/DTD/svg11.dtd">
<svg version="1.1" xmlns="http://www.w3.org/2000/svg" xmlns:xlink="http://www.w3.org/1999/xlink" preserveAspectRatio="xMidYMid meet" viewBox="0 0 640 640" width="20" height="20"><defs><path d="M629.09 320C635.12 320 640 324.88 640 330.91C640 344.92 640 376.03 640 390.04C640 396.07 635.12 400.95 629.09 400.95C503.27 400.95 136.73 400.95 10.91 400.95C4.88 400.95 0 396.07 0 390.04C0 376.03 0 344.92 0 330.91C0 324.88 4.88 320 10.91 320C136.73 320 503.27 320 629.09 320Z" id="b3mNFfOBED"></path><path d="M640 634.55C640 637.56 637.56 640 634.55 640C619.45 640 579.6 640 564.5 640C561.49 640 559.05 637.56 559.05 634.55C559.05 571.64 559.05 388.36 559.05 325.45C559.05 322.44 561.49 320 564.5 320C579.6 320 619.45 320 634.55 320C637.56 320 640 322.44 640 325.45C640 388.36 640 571.64 640 634.55Z" id="aNMEhfbAc"></path></defs><g><g><g><use xlink:href="#b3mNFfOBED" opacity="1" fill="#ffffff" fill-opacity="1"></use><g><use xlink:href="#b3mNFfOBED" opacity="1" fill-opacity="0" stroke="#ffffff" stroke-width="1" stroke-opacity="1"></use></g></g><g><use xlink:href="#aNMEhfbAc" opacity="1" fill="#ffffff" fill-opacity="1"></use><g><use xlink:href="#aNMEhfbAc" opacity="1" fill-opacity="0" stroke="#ffffff" stroke-width="1" stroke-opacity="1"></use></g></g></g></g></svg>