<?xml version="1.0" encoding="UTF-8" standalone="no"?>
<!DOCTYPE svg PUBLIC "-//W3C//DTD SVG 1.1//EN" "http://www.w3.org/Graphics/SVG/1.1/DTD/svg11.dtd">
<svg version="1.1" xmlns="http://www.w3.org/2000/svg" xmlns:xlink="http://www.w3.org/1999/xlink" preserveAspectRatio="xMidYMid meet" viewBox="0 0 640 640" width="20" height="20"><defs><path d="M629.09 480C635.12 480 640 475.12 640 469.09C640 455.08 640 423.97 640 409.96C640 403.93 635.12 399.05 629.09 399.05C503.27 399.05 136.73 399.05 10.91 399.05C4.88 399.05 0 403.93 0 409.96C0 423.97 0 455.08 0 469.09C0 475.12 4.88 480 10.91 480C136.73 480 503.27 480 629.09 480Z" id="a2p8UPMcpF"></path><path d="M640 165.45C640 162.44 637.56 160 634.55 160C619.45 160 579.6 160 564.5 160C561.49 160 559.05 162.44 559.05 165.45C559.05 228.36 559.05 411.64 559.05 474.55C559.05 477.56 561.49 480 564.5 480C579.6 480 619.45 480 634.55 480C637.56 480 640 477.56 640 474.55C640 411.64 640 228.36 640 165.45Z" id="b3WPdo7kAw"></path></defs><g><g><g><use xlink:href="#a2p8UPMcpF" opacity="1" fill="#161f33" fill-opacity="1"></use><g><use xlink:href="#a2p8UPMcpF" opacity="1" fill-opacity="0" stroke="#161f33" stroke-width="1" stroke-opacity="1"></use></g></g><g><use xlink:href="#b3WPdo7kAw" opacity="1" fill="#161f33" fill-opacity="1"></use><g><use xlink:href="#b3WPdo7kAw" opacity="1" fill-opacity="0" stroke="#161f33" stroke-width="1" stroke-opacity="1"></use></g></g></g></g></svg>