<?xml version="1.0" encoding="UTF-8" standalone="no"?>
<!DOCTYPE svg PUBLIC "-//W3C//DTD SVG 1.1//EN" "http://www.w3.org/Graphics/SVG/1.1/DTD/svg11.dtd">
<svg version="1.1" xmlns="http://www.w3.org/2000/svg" xmlns:xlink="http://www.w3.org/1999/xlink" preserveAspectRatio="xMidYMid meet" viewBox="0 0 640 640" width="20" height="20"><defs><path d="M205.33 554.55C205.33 570.68 191.89 583.77 175.33 583.77C158.78 583.77 145.33 570.68 145.33 554.55C145.33 538.43 158.78 525.33 175.33 525.33C191.89 525.33 205.33 538.43 205.33 554.55Z" id="a2vWgv8Vhs"></path><radialGradient id="gradientbs3SaEy9g" gradientUnits="userSpaceOnUse" cx="175.33" cy="525.33" r="58.44"><stop style="stop-color: #161f33;stop-opacity: 1" offset="0%"></stop><stop style="stop-color: #010000;stop-opacity: 1" offset="100%"></stop></radialGradient><radialGradient id="gradientgEbnTFZxS" gradientUnits="userSpaceOnUse" cx="175.33" cy="525.33" r="58.44"><stop style="stop-color: #6f85b6;stop-opacity: 1" offset="0%"></stop><stop style="stop-color: #010000;stop-opacity: 1" offset="100%"></stop></radialGradient><path d="M407.22 140.05C407.22 175.97 377.27 205.14 340.38 205.14C303.49 205.14 273.54 175.97 273.54 140.05C273.54 104.12 303.49 74.95 340.38 74.95C377.27 74.95 407.22 104.12 407.22 140.05Z" id="isT7XQ7g5"></path><path d="M543.96 611.54C548.74 609.85 551.2 604.57 549.42 599.82C516.34 511.28 420.31 254.32 387.23 165.78C385.44 160.99 380.13 158.51 375.31 160.22C369.1 162.42 359.17 165.94 352.97 168.14C348.19 169.84 345.73 175.12 347.5 179.86C380.59 268.4 476.62 525.37 509.7 613.9C511.49 618.7 516.8 621.17 521.62 619.46C527.83 617.26 537.75 613.74 543.96 611.54Z" id="b1hBzkrrr5"></path><path d="M327.39 168.46C332.17 170.15 334.63 175.43 332.86 180.18C299.77 268.72 203.75 525.68 170.66 614.22C168.87 619.01 163.56 621.49 158.74 619.78C152.53 617.58 142.61 614.06 136.4 611.86C131.62 610.16 129.16 604.88 130.94 600.14C164.02 511.6 260.05 254.63 293.13 166.1C294.92 161.3 300.23 158.83 305.05 160.54C311.26 162.74 321.19 166.26 327.39 168.46Z" id="b4C1KmY0h"></path><path d="M375 180C375 198.81 359.32 214.09 340 214.09C320.68 214.09 305 198.81 305 180C305 161.19 320.68 145.91 340 145.91C359.32 145.91 375 161.19 375 180Z" id="a2qcUip2p8"></path><radialGradient id="gradientbruZAy6oB" gradientUnits="userSpaceOnUse" cx="340" cy="145.91" r="68.18"><stop style="stop-color: #161f33;stop-opacity: 1" offset="0%"></stop><stop style="stop-color: #010000;stop-opacity: 1" offset="100%"></stop></radialGradient><radialGradient id="gradienth8Ap8S95v9" gradientUnits="userSpaceOnUse" cx="340" cy="145.91" r="68.18"><stop style="stop-color: #6f85b6;stop-opacity: 1" offset="0%"></stop><stop style="stop-color: #010000;stop-opacity: 1" offset="100%"></stop></radialGradient><path d="M511.98 602.91C515.39 601.7 519.14 603.45 520.41 606.84C522.7 612.96 527.27 625.21 529.56 631.33C530.81 634.69 529.08 638.42 525.7 639.61C524.47 640.05 526.93 639.18 525.7 639.61C522.29 640.82 518.54 639.08 517.28 635.69C514.99 629.57 510.41 617.31 508.12 611.2C506.87 607.84 508.61 604.11 511.98 602.91C513.21 602.48 510.76 603.35 511.98 602.91Z" id="dJ2S8od1m"></path><path d="M154.81 639.61C158.22 640.82 161.97 639.08 163.23 635.69C165.52 629.57 170.1 617.31 172.38 611.2C173.64 607.84 171.9 604.11 168.52 602.91C167.29 602.48 169.75 603.35 168.52 602.91C165.11 601.7 161.36 603.45 160.1 606.84C157.81 612.96 153.23 625.21 150.95 631.33C149.69 634.69 151.43 638.42 154.81 639.61C156.04 640.05 153.58 639.18 154.81 639.61Z" id="b2wkMUWNI"></path><path d="M160.05 295.84L520 295.85L520 315.85L160.05 315.84L160.05 295.84Z" id="a8c7tHW6T"></path><path d="M343.23 251.99C346.33 251.99 348.83 254.5 348.83 257.59C348.83 275.67 348.83 324.33 348.83 342.41C348.83 345.5 346.33 348.01 343.23 348.01C340.82 348.01 339.18 348.01 336.77 348.01C333.67 348.01 331.17 345.5 331.17 342.41C331.17 324.33 331.17 275.67 331.17 257.59C331.17 254.5 333.67 251.99 336.77 251.99C339.18 251.99 340.82 251.99 343.23 251.99Z" id="k2LmBwT5kx"></path><path d="M342.18 0C349.09 0 354.68 5.6 354.68 12.5C354.68 31.78 354.68 77.1 354.68 96.38C354.68 103.28 349.09 108.88 342.18 108.88C339.68 108.88 344.68 108.88 342.18 108.88C335.28 108.88 329.68 103.28 329.68 96.38C329.68 77.1 329.68 31.78 329.68 12.5C329.68 5.6 335.28 0 342.18 0C344.68 0 339.68 0 342.18 0Z" id="a4AaYYGU0"></path><path d="M157.53 293.64L157.53 293.64L157.53 310.55L157.53 310.55L157.53 293.64Z" id="a19EkdmVod"></path><path d="M160.61 290C161.89 290 162.93 291.04 162.93 292.32C162.93 298.11 162.93 313.14 162.93 318.92C162.93 320.21 161.89 321.25 160.61 321.25C159.9 321.25 160.1 321.25 159.39 321.25C158.11 321.25 157.07 320.21 157.07 318.92C157.07 313.14 157.07 298.11 157.07 292.32C157.07 291.04 158.11 290 159.39 290C160.1 290 159.9 290 160.61 290Z" id="bq95rB5AB"></path><path d="M522.79 291.07C524.07 291.07 525.11 292.11 525.11 293.4C525.11 299.18 525.11 314.21 525.11 320C525.11 321.28 524.07 322.32 522.79 322.32C522.08 322.32 522.27 322.32 521.56 322.32C520.28 322.32 519.24 321.28 519.24 320C519.24 314.21 519.24 299.18 519.24 293.4C519.24 292.11 520.28 291.07 521.56 291.07C522.27 291.07 522.08 291.07 522.79 291.07Z" id="bfniCOUtK"></path><path d="M143.28 560L153.81 618.17L56.72 634.84L46.19 576.67L143.28 560Z" id="a41kxvrYpG"></path><path d="M536.98 552.61L525.27 617.29L606.18 631.18L617.89 566.51L536.98 552.61Z" id="a1UYYgHUXq"></path><path d="M530 553.77C530 569.9 516.56 582.99 500 582.99C483.44 582.99 470 569.9 470 553.77C470 537.64 483.44 524.55 500 524.55C516.56 524.55 530 537.64 530 553.77Z" id="b2O1lTptMm"></path><radialGradient id="gradienta26NpOc2r" gradientUnits="userSpaceOnUse" cx="500" cy="524.55" r="58.44"><stop style="stop-color: #161f33;stop-opacity: 1" offset="0%"></stop><stop style="stop-color: #010000;stop-opacity: 1" offset="100%"></stop></radialGradient><radialGradient id="gradientbGveezEYQ" gradientUnits="userSpaceOnUse" cx="500" cy="524.55" r="58.44"><stop style="stop-color: #6f85b6;stop-opacity: 1" offset="0%"></stop><stop style="stop-color: #010000;stop-opacity: 1" offset="100%"></stop></radialGradient></defs><g><g><g><use xlink:href="#a2vWgv8Vhs" opacity="1" fill="url(#gradientbs3SaEy9g)"></use><use xlink:href="#a2vWgv8Vhs" opacity="1" fill="url(#gradientgEbnTFZxS)"></use><g><use xlink:href="#a2vWgv8Vhs" opacity="1" fill-opacity="0" stroke="#161f33" stroke-width="3" stroke-opacity="0.8"></use></g></g><g><g><use xlink:href="#isT7XQ7g5" opacity="1" fill-opacity="0" stroke="#161f33" stroke-width="25" stroke-opacity="0.8"></use></g></g><g><use xlink:href="#b1hBzkrrr5" opacity="1" fill="#161f33" fill-opacity="0.8"></use><g><use xlink:href="#b1hBzkrrr5" opacity="1" fill-opacity="0" stroke="#161f33" stroke-width="0" stroke-opacity="0.8"></use></g></g><g><use xlink:href="#b4C1KmY0h" opacity="1" fill="#161f33" fill-opacity="0.8"></use><g><use xlink:href="#b4C1KmY0h" opacity="1" fill-opacity="0" stroke="#161f33" stroke-width="0" stroke-opacity="0.8"></use></g></g><g><g><filter id="shadow16124691" x="296" y="136.91" width="89" height="87.18" filterUnits="userSpaceOnUse" primitiveUnits="userSpaceOnUse"><feFlood></feFlood><feComposite in2="SourceAlpha" operator="in"></feComposite><feGaussianBlur stdDeviation="1"></feGaussianBlur><feOffset dx="1" dy="1" result="afterOffset"></feOffset><feFlood flood-color="#000000" flood-opacity="0.5"></feFlood><feComposite in2="afterOffset" operator="in"></feComposite><feMorphology operator="dilate" radius="1"></feMorphology><feComposite in2="SourceAlpha" operator="out"></feComposite></filter><path d="M375 180C375 198.81 359.32 214.09 340 214.09C320.68 214.09 305 198.81 305 180C305 161.19 320.68 145.91 340 145.91C359.32 145.91 375 161.19 375 180Z" id="armN8K2Pf" fill="white" fill-opacity="1" filter="url(#shadow16124691)"></path></g><use xlink:href="#a2qcUip2p8" opacity="1" fill="url(#gradientbruZAy6oB)"></use><use xlink:href="#a2qcUip2p8" opacity="1" fill="url(#gradienth8Ap8S95v9)"></use><g><use xlink:href="#a2qcUip2p8" opacity="1" fill-opacity="0" stroke="#161f33" stroke-width="3" stroke-opacity="0.8"></use></g></g><g><use xlink:href="#dJ2S8od1m" opacity="1" fill="#161f33" fill-opacity="0.8"></use><g><use xlink:href="#dJ2S8od1m" opacity="1" fill-opacity="0" stroke="#161f33" stroke-width="3" stroke-opacity="0.8"></use></g></g><g><use xlink:href="#b2wkMUWNI" opacity="1" fill="#161f33" fill-opacity="0.8"></use><g><use xlink:href="#b2wkMUWNI" opacity="1" fill-opacity="0" stroke="#161f33" stroke-width="3" stroke-opacity="0.8"></use></g></g><g><use xlink:href="#a8c7tHW6T" opacity="1" fill="#161f33" fill-opacity="0.8"></use><g><use xlink:href="#a8c7tHW6T" opacity="1" fill-opacity="0" stroke="#161f33" stroke-width="2" stroke-opacity="0.8"></use></g></g><g><use xlink:href="#k2LmBwT5kx" opacity="1" fill="#161f33" fill-opacity="0.8"></use><g><use xlink:href="#k2LmBwT5kx" opacity="1" fill-opacity="0" stroke="#161f33" stroke-width="2" stroke-opacity="0.8"></use></g></g><g><use xlink:href="#a4AaYYGU0" opacity="1" fill="#161f33" fill-opacity="0.8"></use><g><use xlink:href="#a4AaYYGU0" opacity="1" fill-opacity="0" stroke="#161f33" stroke-width="2" stroke-opacity="0.8"></use></g></g><g><use xlink:href="#a19EkdmVod" opacity="1" fill="#161f33" fill-opacity="0.8"></use><g><use xlink:href="#a19EkdmVod" opacity="1" fill-opacity="0" stroke="#161f33" stroke-width="2" stroke-opacity="0.8"></use></g></g><g><use xlink:href="#bq95rB5AB" opacity="1" fill="#161f33" fill-opacity="0.8"></use><g><use xlink:href="#bq95rB5AB" opacity="1" fill-opacity="0" stroke="#161f33" stroke-width="2" stroke-opacity="0.8"></use></g></g><g><use xlink:href="#bfniCOUtK" opacity="1" fill="#161f33" fill-opacity="0.8"></use><g><use xlink:href="#bfniCOUtK" opacity="1" fill-opacity="0" stroke="#161f33" stroke-width="2" stroke-opacity="0.8"></use></g></g><g><use xlink:href="#a41kxvrYpG" opacity="1" fill="#ffffff" fill-opacity="1"></use><g><use xlink:href="#a41kxvrYpG" opacity="1" fill-opacity="0" stroke="#161f33" stroke-width="0" stroke-opacity="0.8"></use></g></g><g><use xlink:href="#a1UYYgHUXq" opacity="1" fill="#ffffff" fill-opacity="1"></use><g><use xlink:href="#a1UYYgHUXq" opacity="1" fill-opacity="0" stroke="#161f33" stroke-width="0" stroke-opacity="0.8"></use></g></g><g><use xlink:href="#b2O1lTptMm" opacity="1" fill="url(#gradienta26NpOc2r)"></use><use xlink:href="#b2O1lTptMm" opacity="1" fill="url(#gradientbGveezEYQ)"></use><g><use xlink:href="#b2O1lTptMm" opacity="1" fill-opacity="0" stroke="#161f33" stroke-width="3" stroke-opacity="0.8"></use></g></g></g></g></svg>