<?xml version="1.0" encoding="UTF-8" standalone="no"?>
<!DOCTYPE svg PUBLIC "-//W3C//DTD SVG 1.1//EN" "http://www.w3.org/Graphics/SVG/1.1/DTD/svg11.dtd">
<svg version="1.1" xmlns="http://www.w3.org/2000/svg" xmlns:xlink="http://www.w3.org/1999/xlink" preserveAspectRatio="xMidYMid meet" viewBox="0 0 640 640" width="25" height="25"><defs><path d="M190.66 577.51C190.66 587.57 182.28 595.73 171.95 595.73C161.62 595.73 153.23 587.57 153.23 577.51C153.23 567.45 161.62 559.28 171.95 559.28C182.28 559.28 190.66 567.45 190.66 577.51Z" id="aW2e26HrM"></path><radialGradient id="gradienta7QRb6Ls2C" gradientUnits="userSpaceOnUse" cx="171.95" cy="559.28" r="36.46"><stop style="stop-color: #161f33;stop-opacity: 1" offset="0%"></stop><stop style="stop-color: #010000;stop-opacity: 1" offset="100%"></stop></radialGradient><radialGradient id="gradientaerIhADSb" gradientUnits="userSpaceOnUse" cx="171.95" cy="559.28" r="36.46"><stop style="stop-color: #6f85b6;stop-opacity: 1" offset="0%"></stop><stop style="stop-color: #010000;stop-opacity: 1" offset="100%"></stop></radialGradient><path d="M407.22 140.05C407.22 175.97 377.27 205.14 340.38 205.14C303.49 205.14 273.54 175.97 273.54 140.05C273.54 104.12 303.49 74.95 340.38 74.95C377.27 74.95 407.22 104.12 407.22 140.05Z" id="biAhyl81h"></path><path d="M529.02 608.05C532.04 606.98 533.6 603.64 532.47 600.64C499.29 511.84 401.79 250.93 368.61 162.14C367.48 159.1 364.12 157.54 361.07 158.62C357.15 160.01 350.87 162.24 346.95 163.63C343.93 164.7 342.37 168.04 343.49 171.04C376.67 259.83 474.17 520.75 507.35 609.54C508.49 612.57 511.84 614.14 514.89 613.05C518.82 611.66 525.09 609.44 529.02 608.05Z" id="e4IYrWTnOv"></path><path d="M333.77 163.75C336.79 164.82 338.34 168.16 337.22 171.16C304.05 259.93 206.57 520.77 173.4 609.54C172.27 612.57 168.91 614.14 165.86 613.05C161.94 611.66 155.66 609.44 151.74 608.05C148.72 606.98 147.16 603.64 148.28 600.64C181.45 511.87 278.93 251.02 312.1 162.25C313.24 159.22 316.59 157.66 319.64 158.74C323.57 160.13 329.84 162.36 333.77 163.75Z" id="c3jwDH4kYR"></path><path d="M367.11 197.33C367.11 211.7 355.13 223.37 340.38 223.37C325.62 223.37 313.64 211.7 313.64 197.33C313.64 182.96 325.62 171.29 340.38 171.29C355.13 171.29 367.11 182.96 367.11 197.33Z" id="aKyYBpB9O"></path><radialGradient id="gradientb3G5X1GryW" gradientUnits="userSpaceOnUse" cx="340.38" cy="171.29" r="52.08"><stop style="stop-color: #161f33;stop-opacity: 1" offset="0%"></stop><stop style="stop-color: #010000;stop-opacity: 1" offset="100%"></stop></radialGradient><radialGradient id="gradientcboepX5rE" gradientUnits="userSpaceOnUse" cx="340.38" cy="171.29" r="52.08"><stop style="stop-color: #6f85b6;stop-opacity: 1" offset="0%"></stop><stop style="stop-color: #010000;stop-opacity: 1" offset="100%"></stop></radialGradient><path d="M511.98 602.91C515.39 601.7 519.14 603.45 520.41 606.84C522.7 612.96 527.27 625.21 529.56 631.33C530.81 634.69 529.08 638.42 525.7 639.61C524.47 640.05 526.93 639.18 525.7 639.61C522.29 640.82 518.54 639.08 517.28 635.69C514.99 629.57 510.41 617.31 508.12 611.2C506.87 607.84 508.61 604.11 511.98 602.91C513.21 602.48 510.76 603.35 511.98 602.91Z" id="c55HY1mUJv"></path><path d="M154.81 639.61C158.22 640.82 161.97 639.08 163.23 635.69C165.52 629.57 170.1 617.31 172.38 611.2C173.64 607.84 171.9 604.11 168.52 602.91C167.29 602.48 169.75 603.35 168.52 602.91C165.11 601.7 161.36 603.45 160.1 606.84C157.81 612.96 153.23 625.21 150.95 631.33C149.69 634.69 151.43 638.42 154.81 639.61C156.04 640.05 153.58 639.18 154.81 639.61Z" id="gzLrHhxX0"></path><path d="M158.58 299.84L522.18 299.84L522.18 313.55L158.58 313.55L158.58 299.84Z" id="bTDcpn5EJ"></path><path d="M340.54 255.98C343.8 255.98 346.45 258.63 346.45 261.89C346.45 281 346.45 332.4 346.45 351.5C346.45 354.77 343.8 357.42 340.54 357.42C339.29 357.42 341.47 357.42 340.22 357.42C336.95 357.42 334.3 354.77 334.3 351.5C334.3 332.4 334.3 281 334.3 261.89C334.3 258.63 336.95 255.98 340.22 255.98C341.47 255.98 339.29 255.98 340.54 255.98Z" id="dQFKFeJK4"></path><path d="M340.38 0C346.28 0 351.07 4.79 351.07 10.69C351.07 27.19 351.07 65.96 351.07 82.46C351.07 88.36 346.28 93.15 340.38 93.15C338.24 93.15 342.52 93.15 340.38 93.15C334.47 93.15 329.68 88.36 329.68 82.46C329.68 65.96 329.68 27.19 329.68 10.69C329.68 4.79 334.47 0 340.38 0C342.52 0 338.24 0 340.38 0Z" id="a2Tr7SXOG"></path><path d="M157.53 293.64L157.53 293.64L157.53 310.55L157.53 310.55L157.53 293.64Z" id="f3mcVNkAbU"></path><path d="M162.13 291.07C163.41 291.07 164.45 292.11 164.45 293.4C164.45 299.18 164.45 314.21 164.45 320C164.45 321.28 163.41 322.32 162.13 322.32C161.42 322.32 161.61 322.32 160.9 322.32C159.62 322.32 158.58 321.28 158.58 320C158.58 314.21 158.58 299.18 158.58 293.4C158.58 292.11 159.62 291.07 160.9 291.07C161.61 291.07 161.42 291.07 162.13 291.07Z" id="a1hytwH4k2"></path><path d="M522.79 291.07C524.07 291.07 525.11 292.11 525.11 293.4C525.11 299.18 525.11 314.21 525.11 320C525.11 321.28 524.07 322.32 522.79 322.32C522.08 322.32 522.27 322.32 521.56 322.32C520.28 322.32 519.24 321.28 519.24 320C519.24 314.21 519.24 299.18 519.24 293.4C519.24 292.11 520.28 291.07 521.56 291.07C522.27 291.07 522.08 291.07 522.79 291.07Z" id="a6W7Bmdqd"></path><path d="M154.25 588.37L158.58 612.31L118.63 619.17L114.29 595.23L154.25 588.37Z" id="a2GNKERC7L"></path><path d="M525.75 586.7L521.42 610.64L561.37 617.5L565.71 593.56L525.75 586.7Z" id="cdH2gQEFb"></path><path d="M527.52 580.11C527.52 590.17 519.14 598.34 508.81 598.34C498.48 598.34 490.09 590.17 490.09 580.11C490.09 570.05 498.48 561.88 508.81 561.88C519.14 561.88 527.52 570.05 527.52 580.11Z" id="a2ch3wtYuH"></path><radialGradient id="gradienta6H4rrx2h" gradientUnits="userSpaceOnUse" cx="508.81" cy="561.88" r="36.46"><stop style="stop-color: #161f33;stop-opacity: 1" offset="0%"></stop><stop style="stop-color: #010000;stop-opacity: 1" offset="100%"></stop></radialGradient><radialGradient id="gradienta4Fd7LI8Tm" gradientUnits="userSpaceOnUse" cx="508.81" cy="561.88" r="36.46"><stop style="stop-color: #6f85b6;stop-opacity: 1" offset="0%"></stop><stop style="stop-color: #010000;stop-opacity: 1" offset="100%"></stop></radialGradient></defs><g><g><g><use xlink:href="#aW2e26HrM" opacity="1" fill="url(#gradienta7QRb6Ls2C)"></use><use xlink:href="#aW2e26HrM" opacity="1" fill="url(#gradientaerIhADSb)"></use><g><use xlink:href="#aW2e26HrM" opacity="1" fill-opacity="0" stroke="#161f33" stroke-width="3" stroke-opacity="1"></use></g></g><g><g><use xlink:href="#biAhyl81h" opacity="1" fill-opacity="0" stroke="#161f33" stroke-width="15" stroke-opacity="1"></use></g></g><g><use xlink:href="#e4IYrWTnOv" opacity="1" fill="#161f33" fill-opacity="1"></use><g><use xlink:href="#e4IYrWTnOv" opacity="1" fill-opacity="0" stroke="#080805" stroke-width="0" stroke-opacity="1"></use></g></g><g><use xlink:href="#c3jwDH4kYR" opacity="1" fill="#161f33" fill-opacity="1"></use><g><use xlink:href="#c3jwDH4kYR" opacity="1" fill-opacity="0" stroke="#080805" stroke-width="0" stroke-opacity="1"></use></g></g><g><g><filter id="shadow14823138" x="304.64" y="162.29" width="72.47" height="71.08" filterUnits="userSpaceOnUse" primitiveUnits="userSpaceOnUse"><feFlood></feFlood><feComposite in2="SourceAlpha" operator="in"></feComposite><feGaussianBlur stdDeviation="1"></feGaussianBlur><feOffset dx="1" dy="1" result="afterOffset"></feOffset><feFlood flood-color="#000000" flood-opacity="0.5"></feFlood><feComposite in2="afterOffset" operator="in"></feComposite><feMorphology operator="dilate" radius="1"></feMorphology><feComposite in2="SourceAlpha" operator="out"></feComposite></filter><path d="M367.11 197.33C367.11 211.7 355.13 223.37 340.38 223.37C325.62 223.37 313.64 211.7 313.64 197.33C313.64 182.96 325.62 171.29 340.38 171.29C355.13 171.29 367.11 182.96 367.11 197.33Z" id="a4LQATfO6S" fill="white" fill-opacity="1" filter="url(#shadow14823138)"></path></g><use xlink:href="#aKyYBpB9O" opacity="1" fill="url(#gradientb3G5X1GryW)"></use><use xlink:href="#aKyYBpB9O" opacity="1" fill="url(#gradientcboepX5rE)"></use><g><use xlink:href="#aKyYBpB9O" opacity="1" fill-opacity="0" stroke="#161f33" stroke-width="3" stroke-opacity="1"></use></g></g><g><use xlink:href="#c55HY1mUJv" opacity="1" fill="#161f33" fill-opacity="1"></use></g><g><use xlink:href="#gzLrHhxX0" opacity="1" fill="#161f33" fill-opacity="1"></use></g><g><use xlink:href="#bTDcpn5EJ" opacity="1" fill="#161f33" fill-opacity="1"></use></g><g><use xlink:href="#dQFKFeJK4" opacity="1" fill="#161f33" fill-opacity="1"></use></g><g><use xlink:href="#a2Tr7SXOG" opacity="1" fill="#161f33" fill-opacity="1"></use></g><g><use xlink:href="#f3mcVNkAbU" opacity="1" fill="#161f33" fill-opacity="1"></use></g><g><use xlink:href="#a1hytwH4k2" opacity="1" fill="#161f33" fill-opacity="1"></use></g><g><use xlink:href="#a6W7Bmdqd" opacity="1" fill="#161f33" fill-opacity="1"></use></g><g><use xlink:href="#a2GNKERC7L" opacity="1" fill="#ffffff" fill-opacity="1"></use></g><g><use xlink:href="#cdH2gQEFb" opacity="1" fill="#ffffff" fill-opacity="1"></use></g><g><use xlink:href="#a2ch3wtYuH" opacity="1" fill="url(#gradienta6H4rrx2h)"></use><use xlink:href="#a2ch3wtYuH" opacity="1" fill="url(#gradienta4Fd7LI8Tm)"></use><g><use xlink:href="#a2ch3wtYuH" opacity="1" fill-opacity="0" stroke="#161f33" stroke-width="3" stroke-opacity="1"></use></g></g></g></g></svg>