<?xml version="1.0" encoding="UTF-8" standalone="no"?>
<!DOCTYPE svg PUBLIC "-//W3C//DTD SVG 1.1//EN" "http://www.w3.org/Graphics/SVG/1.1/DTD/svg11.dtd">
<svg version="1.1" xmlns="http://www.w3.org/2000/svg" xmlns:xlink="http://www.w3.org/1999/xlink" preserveAspectRatio="xMidYMid meet" viewBox="0 0 640 640" width="20" height="20"><defs><path d="M170.66 577.51C170.66 587.57 162.28 595.74 151.95 595.74C141.62 595.74 133.23 587.57 133.23 577.51C133.23 567.45 141.62 559.28 151.95 559.28C162.28 559.28 170.66 567.45 170.66 577.51Z" id="b3bK0saHkC"></path><radialGradient id="gradienti8nOWlF9u" gradientUnits="userSpaceOnUse" cx="151.95" cy="559.28" r="36.46"><stop style="stop-color: #ffffff;stop-opacity: 1" offset="0%"></stop><stop style="stop-color: #c5c5c5;stop-opacity: 1" offset="100%"></stop></radialGradient><path d="M387.22 140.05C387.22 175.98 357.27 205.15 320.38 205.15C283.49 205.15 253.54 175.98 253.54 140.05C253.54 104.12 283.49 74.95 320.38 74.95C357.27 74.95 387.22 104.12 387.22 140.05Z" id="a2paBFz1Rm"></path><path d="M509.02 608.05C512.04 606.98 513.6 603.64 512.47 600.64C479.29 511.85 381.79 250.93 348.61 162.14C347.48 159.11 344.12 157.54 341.07 158.63C337.15 160.02 330.87 162.24 326.95 163.63C323.93 164.7 322.37 168.04 323.49 171.04C356.67 259.84 454.17 520.75 487.35 609.54C488.49 612.58 491.84 614.14 494.89 613.06C498.82 611.67 505.09 609.44 509.02 608.05Z" id="a1Ki8BQL0g"></path><path d="M313.77 163.75C316.79 164.82 318.34 168.16 317.22 171.16C284.05 259.93 186.57 520.77 153.4 609.54C152.27 612.58 148.91 614.14 145.86 613.06C141.94 611.67 135.66 609.44 131.74 608.05C128.72 606.98 127.16 603.64 128.28 600.64C161.45 511.87 258.93 251.03 292.1 162.26C293.24 159.22 296.59 157.66 299.64 158.74C303.57 160.13 309.84 162.36 313.77 163.75Z" id="g7gyN773u"></path><path d="M347.11 197.33C347.11 211.71 335.13 223.37 320.38 223.37C305.62 223.37 293.64 211.71 293.64 197.33C293.64 182.96 305.62 171.3 320.38 171.3C335.13 171.3 347.11 182.96 347.11 197.33Z" id="gHgAslXfW"></path><radialGradient id="gradienta1huQIENOh" gradientUnits="userSpaceOnUse" cx="320.38" cy="171.3" r="52.08"><stop style="stop-color: #ffffff;stop-opacity: 1" offset="0%"></stop><stop style="stop-color: #c5c5c5;stop-opacity: 1" offset="100%"></stop></radialGradient><path d="M491.98 602.92C495.39 601.71 499.14 603.46 500.41 606.84C502.7 612.96 507.27 625.22 509.56 631.33C510.81 634.69 509.08 638.42 505.7 639.62C504.47 640.05 506.93 639.18 505.7 639.62C502.29 640.83 498.54 639.08 497.28 635.69C494.99 629.57 490.41 617.32 488.12 611.2C486.87 607.84 488.61 604.11 491.98 602.92C493.21 602.48 490.76 603.35 491.98 602.92Z" id="a5H9Remw8"></path><path d="M134.81 639.62C138.22 640.83 141.97 639.08 143.23 635.69C145.52 629.57 150.1 617.32 152.38 611.2C153.64 607.84 151.9 604.11 148.52 602.92C147.29 602.48 149.75 603.35 148.52 602.92C145.11 601.71 141.36 603.46 140.1 606.84C137.81 612.96 133.23 625.22 130.95 631.33C129.69 634.69 131.43 638.42 134.81 639.62C136.04 640.05 133.58 639.18 134.81 639.62Z" id="a39sTiR9L6"></path><path d="M138.58 299.84L502.18 299.84L502.18 313.56L138.58 313.56L138.58 299.84Z" id="b94MMHQA3"></path><path d="M320.54 255.98C323.8 255.98 326.45 258.63 326.45 261.9C326.45 281 326.45 332.4 326.45 351.5C326.45 354.77 323.8 357.42 320.54 357.42C319.29 357.42 321.47 357.42 320.22 357.42C316.95 357.42 314.3 354.77 314.3 351.5C314.3 332.4 314.3 281 314.3 261.9C314.3 258.63 316.95 255.98 320.22 255.98C321.47 255.98 319.29 255.98 320.54 255.98Z" id="b15fVwGt0n"></path><path d="M320.38 0C326.28 0 331.07 4.79 331.07 10.7C331.07 27.19 331.07 65.97 331.07 82.46C331.07 88.37 326.28 93.15 320.38 93.15C318.24 93.15 322.52 93.15 320.38 93.15C314.47 93.15 309.68 88.37 309.68 82.46C309.68 65.97 309.68 27.19 309.68 10.7C309.68 4.79 314.47 0 320.38 0C322.52 0 318.24 0 320.38 0Z" id="bw0XdMrzt"></path><path d="M137.53 293.64L137.53 293.64L137.53 310.55L137.53 310.55L137.53 293.64Z" id="a2yo2ij5Po"></path><path d="M142.13 291.08C143.41 291.08 144.45 292.12 144.45 293.4C144.45 299.18 144.45 314.22 144.45 320C144.45 321.28 143.41 322.32 142.13 322.32C141.42 322.32 141.61 322.32 140.9 322.32C139.62 322.32 138.58 321.28 138.58 320C138.58 314.22 138.58 299.18 138.58 293.4C138.58 292.12 139.62 291.08 140.9 291.08C141.61 291.08 141.42 291.08 142.13 291.08Z" id="agxPWF2Zy"></path><path d="M502.79 291.08C504.07 291.08 505.11 292.12 505.11 293.4C505.11 299.18 505.11 314.22 505.11 320C505.11 321.28 504.07 322.32 502.79 322.32C502.08 322.32 502.27 322.32 501.56 322.32C500.28 322.32 499.24 321.28 499.24 320C499.24 314.22 499.24 299.18 499.24 293.4C499.24 292.12 500.28 291.08 501.56 291.08C502.27 291.08 502.08 291.08 502.79 291.08Z" id="c16CxEP4ro"></path><path d="M134.25 588.37L138.58 612.31L98.63 619.17L94.29 595.23L134.25 588.37Z" id="a1zvFLrbqT"></path><path d="M505.75 586.7L501.42 610.64L541.37 617.5L545.71 593.56L505.75 586.7Z" id="cz2egMemU"></path><path d="M507.52 580.11C507.52 590.17 499.14 598.34 488.81 598.34C478.48 598.34 470.09 590.17 470.09 580.11C470.09 570.05 478.48 561.89 488.81 561.89C499.14 561.89 507.52 570.05 507.52 580.11Z" id="agm2C3U5r"></path><radialGradient id="gradientb1dA10e1WG" gradientUnits="userSpaceOnUse" cx="488.81" cy="561.89" r="36.46"><stop style="stop-color: #ffffff;stop-opacity: 1" offset="0%"></stop><stop style="stop-color: #c5c5c5;stop-opacity: 1" offset="100%"></stop></radialGradient></defs><g><g><g><use xlink:href="#b3bK0saHkC" opacity="1" fill="url(#gradienti8nOWlF9u)"></use><g><use xlink:href="#b3bK0saHkC" opacity="1" fill-opacity="0" stroke="#ffffff" stroke-width="3" stroke-opacity="1"></use></g></g><g><use xlink:href="#a2paBFz1Rm" opacity="1" fill="#161f33" fill-opacity="1"></use><g><use xlink:href="#a2paBFz1Rm" opacity="1" fill-opacity="0" stroke="#ffffff" stroke-width="15" stroke-opacity="1"></use></g></g><g><use xlink:href="#a1Ki8BQL0g" opacity="1" fill="#ffffff" fill-opacity="1"></use><g><use xlink:href="#a1Ki8BQL0g" opacity="1" fill-opacity="0" stroke="#ffffff" stroke-width="0" stroke-opacity="1"></use></g></g><g><use xlink:href="#g7gyN773u" opacity="1" fill="#ffffff" fill-opacity="1"></use><g><use xlink:href="#g7gyN773u" opacity="1" fill-opacity="0" stroke="#ffffff" stroke-width="0" stroke-opacity="1"></use></g></g><g><g><filter id="shadow15186306" x="284.64" y="162.3" width="72.47" height="71.08" filterUnits="userSpaceOnUse" primitiveUnits="userSpaceOnUse"><feFlood></feFlood><feComposite in2="SourceAlpha" operator="in"></feComposite><feGaussianBlur stdDeviation="1"></feGaussianBlur><feOffset dx="1" dy="1" result="afterOffset"></feOffset><feFlood flood-color="#000000" flood-opacity="0.5"></feFlood><feComposite in2="afterOffset" operator="in"></feComposite><feMorphology operator="dilate" radius="1"></feMorphology><feComposite in2="SourceAlpha" operator="out"></feComposite></filter><path d="M347.11 197.33C347.11 211.71 335.13 223.37 320.38 223.37C305.62 223.37 293.64 211.71 293.64 197.33C293.64 182.96 305.62 171.3 320.38 171.3C335.13 171.3 347.11 182.96 347.11 197.33Z" id="eggu4m5PQ" fill="white" fill-opacity="1" filter="url(#shadow15186306)"></path></g><use xlink:href="#gHgAslXfW" opacity="1" fill="url(#gradienta1huQIENOh)"></use><g><use xlink:href="#gHgAslXfW" opacity="1" fill-opacity="0" stroke="#ffffff" stroke-width="3" stroke-opacity="1"></use></g></g><g><use xlink:href="#a5H9Remw8" opacity="1" fill="#ffffff" fill-opacity="1"></use><g><use xlink:href="#a5H9Remw8" opacity="1" fill-opacity="0" stroke="#ffffff" stroke-width="3" stroke-opacity="1"></use></g></g><g><use xlink:href="#a39sTiR9L6" opacity="1" fill="#ffffff" fill-opacity="1"></use><g><use xlink:href="#a39sTiR9L6" opacity="1" fill-opacity="0" stroke="#ffffff" stroke-width="3" stroke-opacity="1"></use></g></g><g><use xlink:href="#b94MMHQA3" opacity="1" fill="#ffffff" fill-opacity="1"></use><g><use xlink:href="#b94MMHQA3" opacity="1" fill-opacity="0" stroke="#ffffff" stroke-width="2" stroke-opacity="1"></use></g></g><g><use xlink:href="#b15fVwGt0n" opacity="1" fill="#ffffff" fill-opacity="1"></use><g><use xlink:href="#b15fVwGt0n" opacity="1" fill-opacity="0" stroke="#ffffff" stroke-width="2" stroke-opacity="1"></use></g></g><g><use xlink:href="#bw0XdMrzt" opacity="1" fill="#ffffff" fill-opacity="1"></use><g><use xlink:href="#bw0XdMrzt" opacity="1" fill-opacity="0" stroke="#ffffff" stroke-width="2" stroke-opacity="1"></use></g></g><g><use xlink:href="#a2yo2ij5Po" opacity="1" fill="#ffffff" fill-opacity="1"></use><g><use xlink:href="#a2yo2ij5Po" opacity="1" fill-opacity="0" stroke="#ffffff" stroke-width="2" stroke-opacity="1"></use></g></g><g><use xlink:href="#agxPWF2Zy" opacity="1" fill="#ffffff" fill-opacity="1"></use><g><use xlink:href="#agxPWF2Zy" opacity="1" fill-opacity="0" stroke="#ffffff" stroke-width="2" stroke-opacity="1"></use></g></g><g><use xlink:href="#c16CxEP4ro" opacity="1" fill="#ffffff" fill-opacity="1"></use><g><use xlink:href="#c16CxEP4ro" opacity="1" fill-opacity="0" stroke="#ffffff" stroke-width="2" stroke-opacity="1"></use></g></g><g><use xlink:href="#a1zvFLrbqT" opacity="1" fill="#161f33" fill-opacity="1"></use><g><use xlink:href="#a1zvFLrbqT" opacity="1" fill-opacity="0" stroke="#ffffff" stroke-width="0" stroke-opacity="1"></use></g></g><g><use xlink:href="#cz2egMemU" opacity="1" fill="#161f33" fill-opacity="1"></use><g><use xlink:href="#cz2egMemU" opacity="1" fill-opacity="0" stroke="#ffffff" stroke-width="0" stroke-opacity="1"></use></g></g><g><use xlink:href="#agm2C3U5r" opacity="1" fill="url(#gradientb1dA10e1WG)"></use><g><use xlink:href="#agm2C3U5r" opacity="1" fill-opacity="0" stroke="#ffffff" stroke-width="3" stroke-opacity="1"></use></g></g></g></g></svg>