<?xml version="1.0" encoding="UTF-8" standalone="no"?>
<!DOCTYPE svg PUBLIC "-//W3C//DTD SVG 1.1//EN" "http://www.w3.org/Graphics/SVG/1.1/DTD/svg11.dtd">
<svg version="1.1" xmlns="http://www.w3.org/2000/svg" xmlns:xlink="http://www.w3.org/1999/xlink" preserveAspectRatio="xMidYMid meet" viewBox="0 0 640 640" width="640" height="640"><defs><path d="M570 328.95C570 466.93 457.98 578.95 320 578.95C182.02 578.95 70 466.93 70 328.95C70 190.97 182.02 78.95 320 78.95C457.98 78.95 570 190.97 570 328.95Z" id="balxGIMzq"></path><path d="M359.11 0C373.41 0 385 11.59 385 25.89C385 148.71 385 491.29 385 614.11C385 628.41 373.41 640 359.11 640C340.29 640 309.71 640 290.89 640C276.59 640 265 628.41 265 614.11C265 491.29 265.01 148.71 265.01 25.89C265.01 11.59 276.6 0 290.89 0C309.72 0 340.29 0 359.11 0Z" id="bquOvFu45"></path><path d="M522.15 575.58C512.04 585.69 495.65 585.69 485.54 575.58C398.7 488.73 156.46 246.49 69.61 159.64C59.5 149.53 59.5 133.14 69.61 123.03C82.92 109.72 104.54 88.1 117.85 74.79C127.96 64.68 144.35 64.68 154.46 74.79C241.3 161.64 483.54 403.88 570.39 490.73C580.5 500.84 580.5 517.23 570.39 527.34C557.08 540.65 535.46 562.27 522.15 575.58Z" id="dewEaYriX"></path><path d="M640 359.3C640 373.59 628.41 385.18 614.11 385.18C491.29 385.18 148.71 385.18 25.89 385.18C11.59 385.18 0 373.59 0 359.29C0 340.47 0 309.9 0 291.07C0 276.78 11.59 265.19 25.89 265.19C148.71 265.19 491.29 265.19 614.11 265.19C628.41 265.19 640 276.78 640 291.08C640 309.9 640 340.47 640 359.3Z" id="b3gCWx4zVJ"></path><path d="M570.4 123.03C580.51 133.14 580.51 149.53 570.4 159.64C483.55 246.49 241.31 488.73 154.46 575.58C144.35 585.69 127.96 585.69 117.85 575.58C104.54 562.27 82.92 540.65 69.61 527.34C59.5 517.23 59.5 500.84 69.61 490.73C156.46 403.88 398.7 161.64 485.55 74.79C495.66 64.68 512.05 64.68 522.16 74.79C535.47 88.1 557.09 109.72 570.4 123.03Z" id="b2d1bQcuhN"></path><path d="M454.5 325.19C454.5 396.66 396.47 454.69 325 454.69C253.53 454.69 195.5 396.66 195.5 325.19C195.5 253.71 253.53 195.69 325 195.69C396.47 195.69 454.5 253.71 454.5 325.19Z" id="io3S3sNfJ"></path></defs><g><g><g><use xlink:href="#balxGIMzq" opacity="1" fill="#ffffff" fill-opacity="1"></use></g><g><use xlink:href="#bquOvFu45" opacity="1" fill="#ffffff" fill-opacity="1"></use></g><g><use xlink:href="#dewEaYriX" opacity="1" fill="#ffffff" fill-opacity="1"></use></g><g><use xlink:href="#b3gCWx4zVJ" opacity="1" fill="#ffffff" fill-opacity="1"></use></g><g><use xlink:href="#b2d1bQcuhN" opacity="1" fill="#ffffff" fill-opacity="1"></use></g><g><use xlink:href="#io3S3sNfJ" opacity="1" fill="#161f33" fill-opacity="1"></use></g></g></g></svg>