<?xml version="1.0" encoding="UTF-8" standalone="no"?>
<!DOCTYPE svg PUBLIC "-//W3C//DTD SVG 1.1//EN" "http://www.w3.org/Graphics/SVG/1.1/DTD/svg11.dtd">
<svg version="1.1" xmlns="http://www.w3.org/2000/svg" xmlns:xlink="http://www.w3.org/1999/xlink" preserveAspectRatio="xMidYMid meet" viewBox="0 0 640 640" width="640" height="640"><defs><path d="M48.8 616.34C48.8 627.36 39.87 636.29 28.85 636.29C23.08 636.29 25.73 636.29 19.96 636.29C8.93 636.29 0 627.36 0 616.34C0 509.24 0 207.89 0 100.79C0 89.77 8.93 80.83 19.96 80.83C25.73 80.83 23.08 80.83 28.85 80.83C39.87 80.83 48.8 89.77 48.8 100.79C48.8 207.89 48.8 509.24 48.8 616.34Z" id="f2SeaKsPV"></path><path d="M530.78 80.83C541.83 80.83 550.78 89.79 550.78 100.83C550.78 106.62 550.78 103.96 550.78 109.75C550.78 120.79 541.83 129.75 530.78 129.75C424.63 129.75 126.16 129.75 20 129.75C8.95 129.75 0 120.79 0 109.75C0 103.96 0 106.62 0 100.83C0 89.79 8.95 80.83 20 80.83C126.16 80.83 424.63 80.83 530.78 80.83Z" id="b28K8lb44E"></path><path d="M640 620C640 631.05 631.05 640 620 640C614.22 640 616.87 640 611.09 640C600.04 640 591.09 631.05 591.09 620C591.09 496.24 591.09 144.95 591.09 21.19C591.09 10.15 600.04 1.19 611.09 1.19C616.87 1.19 614.22 1.19 620 1.19C631.05 1.19 640 10.15 640 21.19C640 144.95 640 496.24 640 620Z" id="dCov8ODU5"></path><path d="M620 591.09C631.05 591.09 640 600.04 640 611.09C640 616.87 640 614.22 640 620C640 631.05 631.05 640 620 640C496 640 144 640 20 640C8.95 640 0 631.05 0 620C0 614.22 0 616.87 0 611.09C0 600.04 8.95 591.09 20 591.09C144 591.09 496 591.09 620 591.09Z" id="b1DhIQHuln"></path><path d="M630.75 1.19C635.86 1.19 640 5.33 640 10.44C640 18.37 640 32.93 640 40.86C640 45.97 635.86 50.11 630.75 50.11C583.62 50.11 451.48 50.11 404.35 50.11C399.25 50.11 395.11 45.97 395.11 40.86C395.11 32.93 395.11 18.37 395.11 10.44C395.11 5.33 399.25 1.19 404.35 1.19C451.48 1.19 583.62 1.19 630.75 1.19Z" id="d42AgOWBke"></path><path d="M550.78 318.46C550.78 323.61 546.61 327.78 541.46 327.78C533.54 327.78 519.11 327.78 511.19 327.78C506.05 327.78 501.87 323.61 501.87 318.46C501.87 270.93 501.87 137.68 501.87 90.16C501.87 85.01 506.05 80.83 511.19 80.83C519.11 80.83 533.54 80.83 541.46 80.83C546.61 80.83 550.78 85.01 550.78 90.16C550.78 137.68 550.78 270.93 550.78 318.46Z" id="a6W20b5tw"></path></defs><g><g><g><use xlink:href="#f2SeaKsPV" opacity="1" fill="#ffffff" fill-opacity="1"></use><g><use xlink:href="#f2SeaKsPV" opacity="1" fill-opacity="0" stroke="#000000" stroke-width="0" stroke-opacity="1"></use></g></g><g><use xlink:href="#b28K8lb44E" opacity="1" fill="#ffffff" fill-opacity="1"></use><g><use xlink:href="#b28K8lb44E" opacity="1" fill-opacity="0" stroke="#000000" stroke-width="0" stroke-opacity="1"></use></g></g><g><use xlink:href="#dCov8ODU5" opacity="1" fill="#ffffff" fill-opacity="1"></use><g><use xlink:href="#dCov8ODU5" opacity="1" fill-opacity="0" stroke="#000000" stroke-width="0" stroke-opacity="1"></use></g></g><g><use xlink:href="#b1DhIQHuln" opacity="1" fill="#ffffff" fill-opacity="1"></use><g><use xlink:href="#b1DhIQHuln" opacity="1" fill-opacity="0" stroke="#000000" stroke-width="0" stroke-opacity="1"></use></g></g><g><use xlink:href="#d42AgOWBke" opacity="1" fill="#ffffff" fill-opacity="1"></use><g><use xlink:href="#d42AgOWBke" opacity="1" fill-opacity="0" stroke="#000000" stroke-width="0" stroke-opacity="1"></use></g></g><g><use xlink:href="#a6W20b5tw" opacity="1" fill="#ffffff" fill-opacity="1"></use><g><use xlink:href="#a6W20b5tw" opacity="1" fill-opacity="0" stroke="#000000" stroke-width="0" stroke-opacity="1"></use></g></g></g></g></svg>